<svg width="1440" height="100" viewBox="0 0 1440 100" fill="none" xmlns="http://www.w3.org/2000/svg">
<path d="M501.333 0.518939C498.562 0.828631 500.101 0.952508 505.952 0.766693C511.803 0.580877 514.267 0.766693 514.267 1.38608C514.267 1.88158 516.73 2.19127 519.81 2.0674C523.505 1.94352 524.737 2.25321 524.121 2.99647C523.197 4.11136 523.197 4.11136 530.896 2.99647C535.207 2.37709 538.902 1.69577 538.902 1.38608C538.902 1.13832 538.902 0.766693 538.902 0.457001C538.902 -0.162383 505.952 -0.162383 501.333 0.518939Z" fill="black"/>
<path d="M489.632 3.92561C479.162 5.28825 461.301 9.12843 463.457 9.50006C464.381 9.68587 467.46 9.37618 470.231 8.88068C473.311 8.38517 478.238 7.76579 481.317 7.57997C484.089 7.33222 487.784 6.65089 488.708 6.09345C489.94 5.47407 493.635 4.48305 497.331 3.92561C505.337 2.56296 499.794 2.56296 489.632 3.92561Z" fill="black"/>
<path d="M514.266 5.35012C514.266 5.65981 515.806 5.78369 517.346 5.59788C519.194 5.41206 520.425 5.10237 520.425 4.91655C520.425 4.79268 519.194 4.6688 517.346 4.6688C515.806 4.6688 514.266 4.97849 514.266 5.35012Z" fill="black"/>
<path d="M555.839 5.28827C554.915 5.59796 555.531 5.90765 557.071 5.90765C558.919 5.90765 560.458 5.59796 560.458 5.28827C560.458 4.91664 559.842 4.66889 559.227 4.66889C558.303 4.66889 556.763 4.91664 555.839 5.28827Z" fill="black"/>
<path d="M534.591 10.0574C523.813 12.0395 514.575 13.9596 514.575 14.3931C514.267 14.7648 507.8 15.3222 499.794 15.57C491.479 15.8177 487.476 16.1893 490.555 16.3132C493.327 16.4371 495.79 16.7468 495.79 16.9945C495.79 17.7997 470.231 19.0385 460.069 18.7908L451.138 18.543L458.837 17.7997C466.228 17.1184 466.228 17.0565 455.758 17.2423C449.907 17.3042 444.98 17.6139 444.98 17.9856C444.98 18.2953 443.748 18.9766 442.208 19.4101C438.513 20.6489 442.824 21.1444 449.599 20.2773C457.297 19.3482 458.837 19.3482 458.837 20.3392C458.837 21.1444 416.341 23.8697 404.023 23.8697C400.328 23.8697 397.248 24.1175 397.248 24.4271C397.248 24.6749 387.086 25.4182 375.076 26.0375C347.977 27.3383 325.497 29.2583 327.961 30.0635C329.193 30.4352 326.113 30.6829 321.802 30.6829C317.183 30.6829 314.411 30.4352 315.643 30.0635C318.414 29.1964 313.487 29.3203 299.938 30.4352C292.855 31.0546 283.925 31.3023 277.766 31.0546C272.223 30.8687 262.984 31.1165 257.749 31.5501C252.206 32.0456 235.577 33.0366 220.18 33.7798C205.091 34.5231 182.611 35.8857 170.909 36.8768C144.734 38.9827 104.393 41.2124 93.3071 41.2124C88.9959 41.2124 85.9165 41.3983 87.1483 41.5841C89.9198 42.1415 113.939 42.5751 149.045 42.699C169.061 42.699 180.147 43.0087 180.763 43.4422C181.379 43.8758 180.147 44.1855 177.992 44.1236C160.439 43.9997 153.664 44.3713 154.588 45.3623C155.512 46.3533 153.356 46.4772 140.115 46.2914C131.8 46.1675 123.178 45.7959 121.33 45.4862C117.327 44.8668 107.781 45.3623 107.781 46.2295C107.781 46.4772 105.625 46.6011 103.161 46.4153C97.0025 45.9198 97.0025 47.654 103.469 48.707C106.241 49.1406 115.171 49.5122 123.178 49.5122C131.492 49.5122 137.651 49.698 136.727 50.0077C134.264 50.8129 156.744 50.9987 169.369 50.2554C176.76 49.8219 176.76 49.8838 167.83 51.3703C162.903 52.2375 154.588 53.2904 149.353 53.6621C144.426 54.0337 137.959 54.5911 135.496 54.9008C133.032 55.2105 126.873 55.9538 121.946 56.5732C117.019 57.1306 106.241 58.741 97.6184 60.1036C73.5987 64.0058 63.4365 65.3065 57.8935 65.3065C54.8141 65.3684 52.3505 65.6781 52.3505 65.9878C52.3505 66.3594 49.2711 66.4833 45.5758 66.2975C37.5692 65.8639 0 69.2705 0 70.3854C0 70.757 1.84767 70.9429 3.69533 70.757C14.1654 69.9518 43.4202 68.9608 45.2678 69.2705C46.4996 69.5183 44.6519 70.1377 41.2645 70.6951C36.0295 71.5003 36.3374 71.5003 45.2678 70.6332C57.5856 69.4563 58.5094 69.4563 58.5094 70.6332C58.5094 71.3764 60.973 71.2526 69.9034 70.0757C78.2179 68.8989 82.2211 68.6511 85.3006 69.2086C91.4595 70.1996 90.2277 70.6951 80.0655 71.5622C69.5954 72.4294 67.4398 73.7301 77.294 73.1107C81.9132 72.801 83.145 72.863 81.9132 73.3585C80.6814 73.7301 77.602 74.0398 75.1384 74.0398C72.6749 74.0398 70.8272 74.3495 70.8272 74.7211C70.8272 75.1547 73.2908 75.2785 77.602 74.9689C92.9992 74.0398 109.936 73.4823 123.178 73.4823C136.727 73.4204 136.727 73.4823 129.337 74.3495C107.165 76.8889 94.231 77.6322 91.1515 76.6412C88.9959 75.8979 24.6355 75.836 24.6355 76.5173C24.6355 76.827 27.715 77.0128 31.4103 77.0128C47.1155 76.827 58.8174 77.1367 56.9697 77.7561C55.7379 78.1277 59.4333 78.3755 65.9001 78.3755C72.059 78.3755 76.9861 78.6232 76.9861 78.9949C76.9861 79.3045 84.0688 79.6142 92.3833 79.6142C101.006 79.6142 107.781 79.862 107.781 80.2336C107.781 80.5433 105.933 80.853 104.085 80.853C101.93 80.853 91.7674 82.4015 81.6053 84.2596C71.751 86.1178 62.2048 87.6662 60.665 87.6662C59.1253 87.6662 59.7412 88.0998 61.8968 88.6572C65.2842 89.4624 69.5954 89.5863 84.3768 89.2147C95.4628 88.9669 110.552 89.1527 122.562 89.5863C140.423 90.3296 142.578 90.2676 145.35 89.3386C148.737 88.0998 154.588 88.5334 152.125 89.7721C150.893 90.4534 155.82 90.7012 175.22 90.8251C188.462 90.949 200.78 91.3206 202.319 91.5683C203.551 91.878 201.396 92.6213 197.084 93.3026L189.386 94.5414L197.084 94.0459C201.396 93.7981 213.097 93.5504 223.26 93.5504C233.422 93.5504 247.279 93.2407 254.054 92.8071C279.613 91.3206 291.623 90.8251 316.567 90.4534C330.424 90.2057 341.818 89.8341 341.818 89.5863C341.818 89.4005 354.136 89.1527 368.917 89.0908C392.629 89.0289 446.211 87.6043 462.84 86.6752C466.536 86.4275 468.075 86.6752 468.075 87.6043C468.075 88.5953 466.228 88.905 460.069 88.905C455.758 88.905 453.294 89.1527 454.218 89.5244C455.142 89.8341 452.678 90.2676 448.367 90.5154C443.748 90.7012 441.284 91.1967 442.516 91.6922C443.44 92.2497 440.36 92.6832 432.97 92.9929C426.811 93.1787 420.96 93.6123 420.036 93.922C417.573 94.7891 426.195 94.6033 438.821 93.4884C448.059 92.7452 451.138 92.6832 452.986 93.3026C454.834 93.922 456.374 93.922 460.069 93.3026C462.84 92.8071 469.615 92.3735 474.85 92.2497C484.396 92.0019 493.943 91.4445 566.618 86.9849C584.478 85.87 602.339 84.9409 606.65 84.8171C610.962 84.7551 630.362 84.0738 649.763 83.3925C691.027 81.7821 705.808 81.4104 720.59 81.4104C726.441 81.4104 740.606 80.9149 752 80.2956C763.702 79.6762 773.864 79.3665 774.788 79.6762C775.712 79.9859 774.788 80.2336 773.248 80.2336C771.401 80.2336 769.861 80.7291 769.861 81.2866C769.861 82.4634 753.848 85.3745 743.686 86.0558C735.987 86.5513 720.898 88.8431 725.209 88.905C727.057 88.905 747.997 86.9849 771.709 84.6312C795.42 82.2776 820.672 80.0478 827.754 79.6142C843.152 78.809 850.542 79.3665 841.92 80.7291C836.377 81.5343 836.685 81.5963 844.691 81.2246C857.933 80.6052 851.774 81.906 838.225 82.6492C826.215 83.3305 814.821 85.8081 823.751 85.8081C826.523 85.8081 833.605 85.3745 839.764 84.879C853.314 83.7022 854.238 83.7022 851.774 84.9409C850.234 85.6842 851.158 85.87 855.161 85.4984C858.241 85.2506 864.708 84.8171 869.327 84.5074C874.254 84.2596 879.797 83.7641 881.645 83.4544C886.572 82.7112 928.144 79.9859 946.929 79.1187C978.031 77.7561 1014.06 77.0128 1028.84 77.3225C1037.16 77.5083 1043.93 77.5083 1043.93 77.2606C1043.93 77.0128 1053.48 76.8889 1064.87 77.0128C1083.66 77.2606 1086.74 77.0748 1095.05 75.7121C1103.06 74.3495 1107.68 74.1017 1128.92 73.9778C1160.64 73.792 1188.36 72.9249 1197.6 71.7481C1203.45 71.0048 1205.29 70.9429 1207.45 71.6242C1209.3 72.3055 1212.68 72.2436 1224.69 71.3764C1232.7 70.819 1241.94 70.3235 1245.02 70.3235C1247.79 70.3235 1250.25 70.1377 1250.25 69.828C1250.25 69.5802 1255.18 69.3944 1261.03 69.3325C1267.19 69.3325 1273.66 68.9608 1275.81 68.5273C1278.89 67.8459 1277.35 67.784 1268.73 68.1556C1259.8 68.5273 1258.57 68.4653 1261.65 67.784C1263.8 67.3504 1270.89 66.9788 1277.05 67.0407C1287.21 67.1027 1287.82 67.0407 1281.36 66.5452C1277.35 66.2355 1270.58 66.0497 1265.96 66.1117C1261.34 66.1736 1256.11 65.9878 1253.95 65.74C1247.17 64.9348 1253.33 64.1296 1266.27 64.1296C1273.04 64.1296 1280.43 63.758 1282.28 63.3244C1288.13 61.8999 1321.7 59.6701 1344.18 59.1746C1366.66 58.741 1392.52 57.5642 1401.76 56.6351C1404.84 56.3254 1409.15 56.0777 1411.62 56.0777C1413.77 56.0777 1417.47 55.706 1419.62 55.2105C1421.47 54.715 1425.17 54.4673 1427.63 54.6531C1430.09 54.8389 1431.94 54.5911 1431.94 54.0337C1431.94 53.4762 1434.1 52.7949 1436.87 52.4852C1440.56 52.0517 1440.87 51.8039 1438.41 51.4323C1436.25 51.1845 1432.25 51.4323 1429.48 51.9278C1422.09 53.1666 1412.85 53.724 1410.69 53.0427C1409.46 52.733 1397.76 52.2994 1384.52 52.1136C1369.12 51.8658 1358.34 51.4323 1354.96 50.8129C1352.18 50.3174 1348.18 49.8838 1346.02 49.8838C1337.4 49.8838 1299.53 47.7779 1299.53 47.2824C1299.53 47.0347 1294.6 46.4153 1288.75 45.9198C1277.97 44.9907 1274.27 43.69 1282.59 43.69C1284.74 43.69 1288.13 43.3184 1289.36 42.8228C1290.9 42.2654 1302.3 41.708 1321.08 41.2744C1337.09 40.8408 1355.26 40.2214 1361.11 39.8498C1387.91 38.1775 1393.14 37.7439 1394.37 36.8768C1395.6 36.1954 1394.06 36.2574 1389.44 37.1245C1383.59 38.1155 1381.75 38.1775 1373.43 37.4961C1368.5 37.0626 1364.19 36.5051 1364.19 36.3193C1364.19 36.0716 1374.05 35.8857 1385.75 35.8857C1403.92 35.9477 1406.69 35.8238 1402.07 35.2044C1398.99 34.7709 1394.99 34.2134 1393.14 33.9037C1385.75 32.603 1377.74 32.1075 1371.89 32.603C1366.66 32.9746 1366.97 33.0985 1374.97 33.2224C1384.21 33.3463 1384.21 33.3463 1373.43 33.7179C1367.58 33.9657 1361.11 33.9037 1359.27 33.656C1357.42 33.4082 1352.49 33.1605 1348.49 33.1605C1344.49 33.0985 1322.31 32.9746 1299.53 32.8508C1276.74 32.665 1254.87 32.5411 1251.18 32.5411C1247.17 32.5411 1244.1 32.2314 1244.1 31.9217C1244.1 31.5501 1246.25 31.3023 1248.71 31.3023C1251.79 31.3023 1253.33 30.6829 1253.33 29.568C1253.33 27.6479 1243.79 26.3472 1230.85 26.3472C1225.31 26.4092 1226.23 26.6569 1235.78 27.6479C1241.94 28.3293 1247.17 29.0725 1247.17 29.3203C1247.17 29.568 1243.17 30.3113 1237.94 30.8687C1229.93 31.8598 1225.31 31.9217 1203.45 31.4881C1189.28 31.1784 1170.5 30.9307 1161.87 30.9926C1152.94 30.9926 1145.55 30.8068 1145.55 30.4971C1145.55 30.2494 1143.4 30.0635 1140.63 30.0635C1131.08 30.0635 1142.17 28.3912 1157.25 27.5241C1187.13 25.8517 1187.43 25.7898 1165.57 25.8517C1135.7 25.9137 1132.62 25.7279 1149.25 24.7988C1161.26 24.1794 1166.8 24.1794 1181.58 24.8607C1202.52 25.8517 1244.1 25.542 1247.48 24.3652C1249.02 23.9316 1259.49 23.0645 1270.89 22.5071L1291.83 21.4541L1256.11 21.7638C1229.93 22.0116 1219.46 21.9496 1217.92 21.3922C1213.92 20.1534 1221.92 19.7198 1245.94 19.9056C1259.8 20.0295 1268.11 19.8437 1267.19 19.4721C1265.96 19.1624 1269.96 18.9146 1276.12 18.9146C1281.97 18.9146 1287.82 19.1624 1288.75 19.534C1289.67 19.8437 1294.6 20.1534 1299.83 20.1534C1304.76 20.1534 1308.76 19.8437 1308.76 19.534C1308.76 19.1624 1311.23 18.9146 1314.31 18.8527C1318.31 18.8527 1317.69 18.6669 1312.46 18.2953C1308.46 17.9236 1280.12 17.7997 1249.33 17.8617L1193.28 18.0475L1218.54 17.0565C1240.4 16.2513 1242.86 16.0655 1237.01 15.4461C1232.7 15.0745 1221.31 14.9506 1207.14 15.2603C1188.36 15.6319 1183.12 15.508 1178.5 14.7028C1174.19 13.9596 1173.27 13.8976 1173.27 14.6409C1173.27 15.6938 1175.12 15.6319 1091.66 16.0655C1038.7 16.3132 1025.76 16.1893 1020.22 15.508C1014.06 14.6409 1008.21 14.6409 986.038 15.57C982.035 15.7558 979.571 15.6319 980.495 15.3222C981.419 15.0125 994.352 14.4551 1009.13 14.0215C1023.91 13.5879 1039 13.0305 1042.39 12.7208C1045.78 12.473 1054.71 11.9156 1062.41 11.482C1089.51 10.0574 1091.66 9.87163 1091.66 9.0045C1091.66 7.70379 1073.8 7.45604 1067.64 8.63287C1065.18 9.12837 1062.41 9.37613 1061.18 9.19031C1060.25 8.94256 1059.33 9.06643 1059.33 9.43806C1059.33 9.80969 1056.56 9.99551 1053.17 9.80969C1050.09 9.62388 1045.16 9.93357 1042.39 10.491C1039.62 11.0485 1034.39 11.482 1030.69 11.482C1027.3 11.482 1020.22 11.7298 1014.98 12.0395C1009.75 12.3492 997.74 12.9686 988.501 13.4021C979.263 13.7738 969.409 14.2693 966.945 14.4551C962.942 14.7648 962.942 14.7028 966.945 13.6499C971.257 12.5969 970.949 12.535 961.094 12.9066C955.551 13.1544 948.777 13.3402 946.621 13.3402C944.157 13.3402 942.31 13.7118 942.31 14.2073C942.31 14.8267 934.919 15.4461 921.062 16.0655C895.81 17.2423 886.88 17.3042 901.969 16.2513C913.055 15.4461 918.598 13.9596 910.284 13.9596C907.512 13.9596 905.356 14.2693 905.356 14.5789C905.356 14.9506 899.505 15.1983 892.423 15.1364C885.032 15.0745 871.79 15.3222 862.552 15.7558C843.768 16.499 838.84 16.2513 851.158 15.1364C855.469 14.7028 859.165 14.1454 859.165 13.8357C859.165 12.9066 849.926 13.3402 834.529 14.8886C826.215 15.7558 816.053 16.4371 811.741 16.4371C807.43 16.4371 803.427 16.6849 802.503 16.9945C800.347 17.6139 776.328 19.2243 759.083 19.8437C739.99 20.525 748.921 19.4101 772.017 18.2953C783.41 17.7378 792.957 16.9945 793.881 16.561C795.112 15.6938 755.695 17.7997 738.759 19.534C732.292 20.2153 723.361 20.7728 718.434 20.7728C710.428 20.7728 710.428 20.7108 716.279 19.7818C721.822 18.9146 721.822 18.8527 714.431 19.2863C710.12 19.4721 702.729 20.0915 697.802 20.587C689.487 21.4541 675.63 21.8257 638.985 22.3212C630.67 22.3832 617.12 22.8787 609.114 23.3123C597.72 23.9316 593.101 23.9316 586.326 23.3742C578.32 22.6309 578.32 22.569 583.555 21.3922C590.329 19.9056 586.018 19.7818 576.472 21.1444C568.157 22.3212 563.846 21.8877 569.697 20.4631C575.856 18.9766 572.161 18.8527 554.608 19.9056C545.677 20.4012 539.211 21.0205 540.134 21.2064C544.138 22.0735 531.82 23.1884 509.956 23.8697C497.022 24.3033 485.936 24.551 485.012 24.4271C484.396 24.2413 494.251 21.7638 507.184 18.9146C519.81 16.0035 533.668 12.5969 537.979 11.2962C541.982 9.99551 547.217 8.81868 549.681 8.63287C553.684 8.32317 558.919 6.52696 555.532 6.52696C554.916 6.52696 545.369 8.13736 534.591 10.0574ZM1303.53 18.7288C1301.37 18.8527 1297.68 18.8527 1295.83 18.7288C1293.67 18.543 1295.21 18.4191 1299.53 18.4191C1303.84 18.4191 1305.38 18.543 1303.53 18.7288ZM563.538 20.7728C563.538 21.0825 558.919 21.3302 553.684 21.3302L543.522 21.2683L552.76 20.7728C557.995 20.525 562.306 20.2773 562.922 20.2153C563.23 20.2153 563.538 20.4012 563.538 20.7728ZM1206.53 21.2064C1203.45 21.3302 1197.9 21.3302 1194.21 21.2064C1190.2 21.0825 1192.67 20.9586 1199.44 20.9586C1206.22 20.8967 1209.3 21.0205 1206.53 21.2064ZM420.344 24.4891C419.42 24.7988 416.033 25.1085 413.261 25.1085C408.642 25.1085 408.642 24.9846 412.645 24.4891C418.804 23.6839 422.808 23.6839 420.344 24.4891ZM1203.14 24.2413C1202.21 24.4271 1199.44 24.4891 1197.29 24.3033C1194.82 24.1175 1195.75 23.9316 1199.14 23.9316C1202.52 23.8697 1204.37 24.0555 1203.14 24.2413ZM511.188 24.7368C511.188 24.8607 509.032 25.1704 506.261 25.3562C503.797 25.542 502.565 25.4801 503.489 25.1085C505.337 24.4891 511.188 24.2413 511.188 24.7368ZM1121.53 25.604C1124 26.0995 1119.99 26.1614 1107.98 25.9137C1094.74 25.6659 1089.2 25.7898 1082.73 26.6569C1076.27 27.5241 1072.88 27.6479 1067.64 27.0905C1063.95 26.7808 1058.4 26.2853 1055.63 26.0995C1052.55 25.9137 1050.09 25.4182 1050.09 25.0465C1050.09 24.1175 1116.91 24.6749 1121.53 25.604ZM490.555 25.542C488.4 25.6659 484.089 25.6659 481.317 25.542C478.238 25.3562 480.085 25.2323 485.012 25.2323C490.247 25.2323 492.403 25.3562 490.555 25.542ZM244.816 33.7798C243.892 34.0895 240.505 34.3992 237.733 34.3373C233.422 34.3373 233.73 34.2134 238.657 33.7798C246.971 33.0985 246.971 33.0985 244.816 33.7798ZM1330.32 36.2574C1330.32 36.5671 1329.09 36.8768 1327.24 36.8768C1325.7 36.8768 1324.16 37.1865 1324.16 37.4961C1324.16 37.8678 1327.55 37.9917 1331.86 37.7439C1336.48 37.4961 1339.56 37.62 1339.56 38.0536C1339.56 40.0356 1302.91 41.8318 1295.21 40.2214C1289.06 39.0446 1287.21 39.1065 1287.21 40.5311C1287.21 42.2654 1281.36 42.7609 1276.43 41.4602C1272.43 40.3453 1272.12 40.3453 1265.65 41.5221C1259.18 42.699 1258.57 42.699 1249.64 41.646C1237.94 40.2834 1232.7 40.2834 1238.24 41.646C1242.25 42.5751 1241.94 42.5751 1235.78 41.9557C1232.09 41.5221 1226.23 41.2124 1222.85 41.2124C1219.15 41.2124 1216.38 40.9647 1216.38 40.5931C1216.38 40.2834 1218.23 40.1595 1220.38 40.2834C1222.23 40.4692 1231.16 40.3453 1239.48 40.0356L1254.87 39.5401L1240.09 38.7349C1231.78 38.3013 1226.23 37.7439 1227.77 37.4961C1229.01 37.2484 1240.71 36.8768 1253.64 36.629C1272.43 36.3813 1277.97 36.4432 1281.05 37.1865C1285.98 38.4252 1297.68 38.4252 1295.52 37.2484C1293.98 36.5671 1296.75 36.2574 1306.61 36.0716C1313.69 35.9477 1322.01 35.8238 1325.08 35.7619C1327.86 35.6999 1330.32 35.8857 1330.32 36.2574ZM232.19 38.673C234.654 39.4782 202.935 40.7789 199.24 40.0356C197.392 39.664 202.627 39.2304 212.79 38.8588C222.028 38.5491 229.726 38.2394 230.034 38.1775C230.342 38.1775 231.266 38.3633 232.19 38.673ZM1358.03 38.7349C1355.57 39.0446 1350.64 39.2924 1347.26 39.2924H1341.1L1347.26 38.7349C1350.64 38.4252 1355.57 38.1775 1358.03 38.1775C1362.04 38.1155 1362.04 38.1775 1358.03 38.7349ZM249.435 39.2924C249.435 39.9737 241.736 40.5931 233.114 40.5931C227.263 40.5311 227.571 40.4072 235.577 39.664C246.971 38.673 249.435 38.5491 249.435 39.2924ZM158.591 40.5931C155.204 40.9028 145.658 41.0886 137.035 41.0886C123.794 41.0886 122.87 41.0266 130.876 40.5931C144.426 39.9117 166.598 39.9117 158.591 40.5931ZM1202.52 42.4512C1203.45 42.7609 1203.14 43.0706 1201.29 43.0706C1199.75 43.0706 1197.29 42.7609 1196.36 42.4512C1195.44 42.0796 1195.75 41.8318 1197.6 41.8318C1199.14 41.8318 1201.6 42.0796 1202.52 42.4512ZM173.373 46.6011C171.217 46.725 166.906 46.725 164.134 46.6011C161.055 46.4153 162.903 46.2914 167.83 46.2914C173.065 46.2914 175.22 46.4153 173.373 46.6011ZM157.052 54.5292C157.052 55.0247 141.039 56.1396 139.191 55.768C138.267 55.6441 141.039 55.2105 145.042 54.9008C153.664 54.2195 157.052 54.0956 157.052 54.5292ZM1250.25 66.8549C1250.25 67.0407 1249.02 67.3504 1247.17 67.5363C1245.63 67.7221 1244.1 67.5982 1244.1 67.2885C1244.1 66.9169 1245.63 66.6072 1247.17 66.6072C1249.02 66.6072 1250.25 66.7311 1250.25 66.8549ZM181.687 68.1556C179.532 68.6511 176.452 69.0847 174.912 69.0847C173.065 69.0847 173.373 68.6511 175.528 68.1556C177.684 67.6601 180.763 67.2266 182.303 67.2266C184.151 67.2266 183.843 67.6601 181.687 68.1556ZM194.005 70.0138C191.849 70.5093 187.846 70.9429 185.075 70.9429C181.995 70.9429 177.068 71.3764 173.681 71.8719C170.601 72.3674 163.211 72.801 157.975 72.801C152.432 72.801 147.813 73.0488 147.813 73.4204C147.813 73.7301 145.35 74.2875 141.962 74.5972C137.035 75.1547 136.727 75.0308 137.959 73.6682C139.807 71.7481 152.74 70.3235 168.446 70.3235C174.912 70.3235 182.303 70.0138 184.767 69.7041C187.23 69.3944 191.233 69.0847 193.697 69.0847C197.084 69.0847 197.084 69.2705 194.005 70.0138ZM192.465 72.1816C191.541 72.4913 189.078 72.801 187.538 72.801C185.69 72.801 185.383 72.4913 186.306 72.1816C187.23 71.81 189.694 71.5622 191.233 71.5622C193.081 71.5622 193.389 71.81 192.465 72.1816ZM492.711 87.0468C490.247 87.3565 484.704 87.6043 480.393 87.6043C473.31 87.6043 473.31 87.5423 478.853 87.0468C482.241 86.7371 487.784 86.4894 491.171 86.4894C496.406 86.4275 496.406 86.5513 492.711 87.0468ZM182.919 87.7901C181.995 88.0379 178.608 88.2856 175.528 88.2856C172.449 88.2856 168.754 88.5334 167.83 88.905C165.058 89.8341 160.131 89.6483 160.131 88.6572C160.131 88.1617 158.899 87.6662 157.052 87.5423C155.512 87.4185 160.747 87.3565 169.369 87.2946C177.684 87.2946 183.843 87.4804 182.919 87.7901Z" fill="black"/>
<path d="M1316.46 39.3544C1315.54 39.6641 1315.85 39.9738 1317.69 39.9738C1319.23 39.9738 1321.7 39.6641 1322.62 39.3544C1323.55 38.9827 1323.24 38.735 1321.39 38.735C1319.85 38.735 1317.39 38.9827 1316.46 39.3544Z" fill="black"/>
<path d="M477.005 12.2253C473.31 13.6499 473.31 13.6499 480.085 12.473C487.167 11.1723 488.091 10.8626 483.472 10.8626C481.932 10.8626 478.853 11.482 477.005 12.2253Z" fill="black"/>
<path d="M997.124 11.9156C998.972 12.0395 1002.67 12.0395 1004.82 11.9156C1006.67 11.7298 1005.13 11.6059 1000.82 11.6059C996.508 11.6059 994.968 11.7298 997.124 11.9156Z" fill="black"/>
<path d="M483.472 13.0305C480.085 13.8357 480.393 13.8976 484.704 13.5879C487.475 13.4021 489.631 12.9685 489.631 12.6589C489.631 11.8537 487.783 11.9775 483.472 13.0305Z" fill="black"/>
<path d="M442.209 14.9506C436.974 15.6939 436.974 15.8177 440.977 15.8177C443.748 15.8177 447.136 15.5081 448.06 15.1364C451.447 14.0835 448.676 14.0215 442.209 14.9506Z" fill="black"/>
<path d="M401.868 22.6309C400.944 22.9406 402.792 23.2503 406.179 23.2503C409.875 23.2503 412.646 22.9406 412.646 22.6309C412.646 22.2593 410.798 22.0115 408.335 22.0115C405.871 22.0115 402.792 22.2593 401.868 22.6309Z" fill="black"/>
<path d="M384.314 23.6839C386.47 23.8698 389.241 23.8078 390.165 23.622C391.397 23.4362 389.549 23.2504 386.162 23.3123C382.774 23.3123 381.851 23.4981 384.314 23.6839Z" fill="black"/>
<path d="M1187.13 27.0286C1185.59 27.4622 1188.67 27.5241 1196.98 27.2144C1212.68 26.657 1213.61 26.3473 1200.06 26.3473C1193.9 26.3473 1188.05 26.657 1187.13 27.0286Z" fill="black"/>
<path d="M27.0991 49.698C29.2547 49.8839 32.0262 49.8219 32.9501 49.6361C34.1818 49.4503 32.3342 49.2645 28.9468 49.3264C25.5594 49.3264 24.6356 49.5122 27.0991 49.698Z" fill="black"/>
<path d="M1345.72 66.2356C1345.72 66.855 1348.8 67.1028 1354.96 67.1028C1362.35 67.0408 1363.58 66.855 1360.81 66.1737C1356.19 65.1208 1345.72 65.1208 1345.72 66.2356Z" fill="black"/>
<path d="M70.8279 98.8152C70.8279 99.1249 72.0597 99.4346 73.5994 99.4346C75.447 99.4346 77.6027 99.1249 78.5265 98.8152C79.4503 98.4436 78.2185 98.1958 75.755 98.1958C72.9835 98.1958 70.8279 98.4436 70.8279 98.8152Z" fill="black"/>
<path d="M88.688 98.6294C90.8436 98.8152 93.6151 98.7533 94.5389 98.5674C95.7707 98.3816 93.9231 98.1958 90.5357 98.2578C87.1483 98.2578 86.2244 98.4436 88.688 98.6294Z" fill="black"/>
<path d="M44.6518 99.4346C45.5757 99.7443 50.1948 100.054 54.814 99.992C62.2047 99.992 62.5126 99.9301 56.9696 99.4346C48.3472 98.6913 42.4962 98.6913 44.6518 99.4346Z" fill="black"/>
</svg>
